<svg width="1400" height="820" viewBox="0 0 1400 820" xmlns="http://www.w3.org/2000/svg" role="img" aria-label="昭通古城手绘导览底图">
  <defs>
    <linearGradient id="paper" x1="0" y1="0" x2="1" y2="1">
      <stop offset="0" stop-color="#f7e8c5"/>
      <stop offset="0.55" stop-color="#efd5a1"/>
      <stop offset="1" stop-color="#e8c68c"/>
    </linearGradient>
    <linearGradient id="river" x1="0" y1="0" x2="1" y2="1">
      <stop offset="0" stop-color="#a9d9c8"/>
      <stop offset="1" stop-color="#7fb9bd"/>
    </linearGradient>
    <filter id="softShadow" x="-20%" y="-20%" width="140%" height="140%">
      <feDropShadow dx="0" dy="8" stdDeviation="8" flood-color="#765034" flood-opacity=".24"/>
    </filter>
    <pattern id="grid" width="72" height="72" patternUnits="userSpaceOnUse" patternTransform="rotate(22)">
      <path d="M0 0H72M0 0V72" fill="none" stroke="#9d8358" stroke-width="2" opacity=".16"/>
    </pattern>
  </defs>
  <rect width="1400" height="820" rx="34" fill="url(#paper)"/>
  <rect width="1400" height="820" rx="34" fill="url(#grid)" opacity=".85"/>
  <path d="M-80 705C145 642 210 758 395 687C543 630 598 530 761 572C910 611 963 746 1132 683C1242 642 1304 565 1485 599V850H-80Z" fill="url(#river)" opacity=".62"/>
  <path d="M105 -40C210 76 304 92 401 170C497 248 537 319 652 328C799 340 867 247 1009 291C1124 326 1199 408 1309 393C1370 384 1422 350 1466 306" fill="none" stroke="#85b6a7" stroke-width="72" opacity=".42"/>
  <path d="M255 132C406 54 635 38 829 89C1042 145 1200 278 1227 443C1260 644 1036 746 782 734C516 721 280 618 204 454C147 332 156 183 255 132Z" fill="#ead6a5" stroke="#8f6f42" stroke-width="8" opacity=".92" filter="url(#softShadow)"/>
  <path d="M285 158C421 92 631 75 805 120C1001 171 1147 291 1173 438C1201 599 1010 684 785 674C545 663 332 574 260 438C206 335 205 202 285 158Z" fill="#f2dfb4" stroke="#b28a55" stroke-width="3" stroke-dasharray="14 13" opacity=".92"/>
  <g fill="none" stroke="#8d6f4a" stroke-width="9" stroke-linecap="round" opacity=".5">
    <path d="M320 240C450 285 613 286 735 236C873 180 982 211 1095 293"/>
    <path d="M285 388C423 346 550 372 660 456C755 529 893 549 1052 486"/>
    <path d="M395 160C368 302 377 465 444 609"/>
    <path d="M665 116C619 265 611 487 658 665"/>
    <path d="M905 160C842 318 835 499 892 646"/>
    <path d="M256 511C413 488 528 535 642 614C775 707 946 663 1111 575"/>
  </g>
  <g stroke="#b78545" stroke-width="3" fill="#d7a35d" opacity=".95">
    <path d="M196 421h74v36h-74z"/><text x="233" y="446" text-anchor="middle" font-size="20" fill="#613817" font-family="serif">济川门</text>
    <path d="M1140 401h80v36h-80z"/><text x="1180" y="426" text-anchor="middle" font-size="20" fill="#613817" font-family="serif">抚镇门</text>
    <path d="M674 86h84v36h-84z"/><text x="716" y="111" text-anchor="middle" font-size="20" fill="#613817" font-family="serif">趣马门</text>
    <path d="M665 670h86v36h-86z"/><text x="708" y="695" text-anchor="middle" font-size="20" fill="#613817" font-family="serif">敉宁门</text>
  </g>
  <g stroke="#684426" stroke-width="3" stroke-linejoin="round">
    <g transform="translate(360 248)"><rect x="0" y="34" width="92" height="54" fill="#dca765"/><path d="M-8 34L46 0l54 34Z" fill="#8b4b2d"/><text x="46" y="118" text-anchor="middle" font-size="20" fill="#4b2b18" font-family="serif">辕门口</text></g>
    <g transform="translate(528 184)"><rect x="0" y="34" width="92" height="54" fill="#e1b56e"/><path d="M-8 34L46 0l54 34Z" fill="#6f8b58"/><text x="46" y="118" text-anchor="middle" font-size="20" fill="#4b2b18" font-family="serif">文庙</text></g>
    <g transform="translate(752 180)"><rect x="0" y="34" width="98" height="58" fill="#e2aa66"/><path d="M-10 34L49 0l59 34Z" fill="#466f91"/><text x="49" y="122" text-anchor="middle" font-size="20" fill="#4b2b18" font-family="serif">陕西会馆</text></g>
    <g transform="translate(898 364)"><rect x="0" y="34" width="105" height="58" fill="#e6b26d"/><path d="M-10 34L52 0l63 34Z" fill="#9a5437"/><text x="52" y="122" text-anchor="middle" font-size="20" fill="#4b2b18" font-family="serif">广东会馆</text></g>
    <g transform="translate(571 424)"><rect x="0" y="34" width="100" height="58" fill="#e5b26a"/><path d="M-10 34L50 0l60 34Z" fill="#6d8d55"/><text x="50" y="122" text-anchor="middle" font-size="20" fill="#4b2b18" font-family="serif">李氏支祠</text></g>
    <g transform="translate(438 528)"><rect x="0" y="34" width="92" height="54" fill="#dfaa68"/><path d="M-8 34L46 0l54 34Z" fill="#8b5a96"/><text x="46" y="118" text-anchor="middle" font-size="20" fill="#4b2b18" font-family="serif">挑水巷</text></g>
    <g transform="translate(746 536)"><rect x="0" y="34" width="94" height="54" fill="#ddaa65"/><path d="M-8 34L47 0l55 34Z" fill="#c86632"/><text x="47" y="118" text-anchor="middle" font-size="20" fill="#4b2b18" font-family="serif">陡街</text></g>
    <g transform="translate(984 510)"><rect x="0" y="34" width="94" height="54" fill="#e4b26d"/><path d="M-8 34L47 0l55 34Z" fill="#8360a0"/><text x="47" y="118" text-anchor="middle" font-size="20" fill="#4b2b18" font-family="serif">云兴街</text></g>
  </g>
  <g opacity=".72" fill="#8aa569">
    <circle cx="300" cy="218" r="26"/><circle cx="327" cy="202" r="18"/><circle cx="1032" cy="266" r="26"/><circle cx="1070" cy="285" r="18"/>
    <circle cx="321" cy="610" r="28"/><circle cx="1104" cy="610" r="24"/><circle cx="685" cy="308" r="18"/><circle cx="824" cy="457" r="18"/>
  </g>
  <g fill="#c75a2c" opacity=".88">
    <circle cx="128" cy="118" r="32"/><text x="128" y="127" text-anchor="middle" font-size="28" fill="#fff3d3" font-family="serif">昭</text>
  </g>
  <text x="122" y="174" font-size="26" fill="#704422" font-family="serif" font-weight="700">龟形古城格局</text>
  <text x="122" y="211" font-size="18" fill="#8a613d" font-family="serif">四门相望，街巷纵横</text>
</svg>
